<svg xmlns="http://www.w3.org/2000/svg" width="32" height="32" viewBox="0 0 32 32">
  <path d="M9 4 a1.75 1.75 0 0 1 3.5 0 v7 h0.6 v-1.6 a1.6 1.6 0 0 1 3.2 0 v2 h0.6 v-1.2 a1.6 1.6 0 0 1 3.2 0 v1.8 h0.6 v-0.8 a1.55 1.55 0 0 1 3.1 0 v6.2 a6 6 0 0 1 -6 6 h-3.3 a6 6 0 0 1 -4.3 -1.8 l-4.3 -4.5 a1.9 1.9 0 0 1 2.8 -2.6 l1.8 1.7 Z"
        fill="#000000" opacity="0.22" transform="translate(1,1.4)"/>
  <path d="M9 4 a1.75 1.75 0 0 1 3.5 0 v7 h0.6 v-1.6 a1.6 1.6 0 0 1 3.2 0 v2 h0.6 v-1.2 a1.6 1.6 0 0 1 3.2 0 v1.8 h0.6 v-0.8 a1.55 1.55 0 0 1 3.1 0 v6.2 a6 6 0 0 1 -6 6 h-3.3 a6 6 0 0 1 -4.3 -1.8 l-4.3 -4.5 a1.9 1.9 0 0 1 2.8 -2.6 l1.8 1.7 Z"
        fill="#7ed957" stroke="#274d12" stroke-width="1.6" stroke-linejoin="round" stroke-linecap="round"/>
</svg>
