<svg xmlns="http://www.w3.org/2000/svg" viewBox="0 0 64 64" width="64" height="64">
  <defs>
    <linearGradient id="b" x1="0%" y1="0%" x2="0%" y2="100%">
      <stop offset="0%" stop-color="#26262e"/>
      <stop offset="60%" stop-color="#121215"/>
      <stop offset="100%" stop-color="#08080a"/>
    </linearGradient>
    <linearGradient id="r" x1="0%" y1="0%" x2="0%" y2="100%">
      <stop offset="0%" stop-color="#a78bfa" stop-opacity="0.55"/>
      <stop offset="100%" stop-color="#a78bfa" stop-opacity="0"/>
    </linearGradient>
    <radialGradient id="e" cx="50%" cy="50%" r="50%">
      <stop offset="0%" stop-color="#eaff00" stop-opacity="1"/>
      <stop offset="60%" stop-color="#b4ff00" stop-opacity="0.85"/>
      <stop offset="100%" stop-color="#3b6000" stop-opacity="0"/>
    </radialGradient>
  </defs>
  <rect width="64" height="64" rx="14" fill="#070708"/>
  <path d="M22 8 C21 16 20 24 22 32 C18 32 14 34 12 38 C10 42 10 48 13 52 C16 55 21 57 26 58 L38 58 C43 57 48 55 51 52 C54 48 54 42 52 38 C50 34 46 32 42 32 C44 24 43 16 42 8 C40 12 38 20 38 30 L26 30 C26 20 24 12 22 8 Z"
        fill="url(#b)"
        stroke="rgba(167,139,250,0.5)"
        stroke-width="1.2"
        stroke-linejoin="round"/>
  <path d="M22 8 C21 16 20 24 22 32 L26 30 C26 20 24 12 22 8 Z" fill="url(#r)" opacity="0.7"/>
  <path d="M42 8 C43 16 44 24 42 32 L38 30 C38 20 40 12 42 8 Z" fill="url(#r)" opacity="0.7"/>
  <path d="M26 52 L30 56 L34 52 L38 56 L42 52" stroke="rgba(167,139,250,0.32)" stroke-width="0.95" fill="none" stroke-linecap="round"/>
  <circle cx="25" cy="42" r="4.6" fill="url(#e)"/>
  <circle cx="25" cy="42" r="1.6" fill="#eaff00"/>
  <circle cx="39" cy="42" r="4.6" fill="url(#e)"/>
  <circle cx="39" cy="42" r="1.6" fill="#eaff00"/>
</svg>
